<svg id="svg" xmlns="http://www.w3.org/2000/svg" xmlns:xlink="http://www.w3.org/1999/xlink" width="400" height="400" viewBox="0, 0, 400,400"><g id="svgg"><path id="path0" d="M138.610 40.935 C 127.486 45.492,117.294 50.828,108.534 56.680 L 100.000 62.382 100.000 51.894 L 100.000 41.406 87.891 41.406 L 75.781 41.406 75.781 62.969 L 75.781 84.533 70.960 90.509 C 61.159 102.658,51.242 119.472,46.011 132.813 C 44.579 136.465,43.296 139.612,43.161 139.806 C 43.025 140.000,38.179 135.433,32.391 129.657 L 21.868 119.156 13.088 127.936 L 4.308 136.716 20.178 152.600 L 36.048 168.484 35.268 174.672 C 33.462 188.980,33.624 210.229,35.612 219.727 L 36.062 221.875 18.031 221.875 L 0.000 221.875 -0.000 233.972 L -0.000 246.068 20.780 246.276 L 41.561 246.484 45.241 255.906 C 52.378 274.179,64.090 293.315,75.704 305.678 L 78.469 308.621 66.390 320.720 L 54.311 332.818 63.090 341.597 L 71.870 350.377 84.269 337.997 L 96.667 325.616 102.435 329.835 C 160.098 372.010,239.902 372.010,297.565 329.835 L 303.333 325.616 315.731 337.997 L 328.130 350.377 336.910 341.597 L 345.689 332.818 333.610 320.720 L 321.531 308.621 324.296 305.678 C 335.910 293.315,347.622 274.179,354.759 255.906 L 358.439 246.484 379.220 246.276 L 400.000 246.068 400.000 233.972 L 400.000 221.875 381.969 221.875 L 363.938 221.875 364.388 219.727 C 366.376 210.229,366.538 188.980,364.732 174.672 L 363.952 168.484 379.822 152.600 L 395.692 136.716 386.912 127.936 L 378.132 119.156 367.609 129.657 C 361.821 135.433,356.975 140.000,356.839 139.806 C 356.704 139.612,355.421 136.465,353.989 132.813 C 348.758 119.472,338.841 102.658,329.040 90.509 L 324.219 84.533 324.219 62.969 L 324.219 41.406 312.109 41.406 L 300.000 41.406 300.000 51.894 L 300.000 62.382 291.430 56.657 C 280.845 49.584,255.493 37.216,254.211 38.498 C 253.473 39.235,246.418 61.046,246.834 61.303 C 247.097 61.465,250.114 62.704,253.539 64.055 C 363.962 107.629,371.937 265.194,266.523 320.588 C 260.574 323.714,260.118 323.697,262.366 320.433 C 277.785 298.045,287.818 259.888,288.826 219.805 L 289.280 201.720 303.625 187.391 C 311.514 179.511,317.969 172.714,317.969 172.287 C 317.969 171.269,302.215 155.469,301.200 155.469 C 300.770 155.469,297.012 158.862,292.850 163.009 L 285.280 170.550 284.525 167.502 C 284.110 165.825,283.168 161.816,282.433 158.594 C 279.795 147.035,269.946 120.313,268.325 120.313 C 267.971 120.313,247.508 130.432,247.060 130.828 C 246.947 130.928,248.069 133.674,249.553 136.931 C 264.784 170.353,269.673 230.615,259.673 261.671 C 259.430 262.425,256.934 260.429,252.102 255.617 C 243.334 246.886,244.977 246.786,235.154 256.643 L 226.977 264.848 238.964 276.854 C 252.493 290.405,251.789 288.565,247.078 298.047 C 238.860 314.591,225.407 329.458,214.550 333.994 L 211.719 335.177 211.719 249.432 L 211.719 163.687 226.566 148.825 L 241.412 133.964 232.818 125.396 L 224.224 116.829 217.971 123.044 L 211.719 129.260 211.719 112.286 L 211.719 95.313 200.000 95.313 L 188.281 95.313 188.281 147.051 L 188.281 198.789 182.599 193.145 C 175.573 186.165,176.935 185.924,166.981 195.909 L 158.599 204.317 173.440 219.143 L 188.281 233.969 188.281 284.573 L 188.281 335.177 185.450 333.994 C 174.593 329.458,161.140 314.591,152.922 298.047 C 148.211 288.565,147.507 290.405,161.036 276.854 L 173.023 264.848 164.846 256.643 C 155.023 246.786,156.666 246.886,147.898 255.617 C 143.040 260.455,140.568 262.429,140.318 261.671 C 130.305 231.337,135.265 170.246,150.447 136.931 C 151.931 133.674,153.053 130.928,152.940 130.828 C 152.492 130.432,132.029 120.313,131.675 120.313 C 130.054 120.313,120.205 147.035,117.567 158.594 C 116.832 161.816,115.890 165.825,115.475 167.502 L 114.720 170.550 107.150 163.009 C 102.988 158.862,99.230 155.469,98.800 155.469 C 97.785 155.469,82.031 171.269,82.031 172.287 C 82.031 172.714,88.486 179.511,96.375 187.391 L 110.720 201.720 111.174 219.805 C 112.182 259.888,122.215 298.045,137.634 320.433 C 139.882 323.697,139.426 323.714,133.477 320.588 C 28.304 265.321,35.636 109.789,145.552 64.465 C 149.795 62.715,153.294 61.118,153.326 60.915 C 153.474 59.987,145.904 38.285,145.443 38.315 C 145.156 38.334,142.081 39.513,138.610 40.935 " stroke="none" fill="#000000" fill-rule="evenodd"></path></g></svg>